<svg width="16" height="16" viewBox="0 0 16 16" fill="none" xmlns="http://www.w3.org/2000/svg">
<path d="M7.2492 14.3415L5.89563 13.5381C5.55211 13.3343 5.38034 13.2323 5.18971 13.2264C4.98371 13.22 4.80891 13.3178 4.4377 13.5381C4.02196 13.7849 3.19529 14.4647 2.66055 14.1405C2.33333 13.9421 2.33333 13.4383 2.33333 12.4305V5.33334C2.33333 3.44772 2.33333 2.50492 2.91912 1.91913C3.50491 1.33334 4.44771 1.33334 6.33333 1.33334H9.66667C11.5523 1.33334 12.4951 1.33334 13.0809 1.91913C13.6667 2.50492 13.6667 3.44772 13.6667 5.33334V12.4305C13.6667 13.4383 13.6667 13.9421 13.3395 14.1405C12.8047 14.4647 11.9781 13.7849 11.5623 13.5381C11.2188 13.3343 11.047 13.2323 10.8564 13.2264C10.6504 13.22 10.4756 13.3178 10.1044 13.5381L8.7508 14.3415C8.38573 14.5583 8.20313 14.6666 8 14.6666C7.79687 14.6666 7.61427 14.5583 7.2492 14.3415Z" stroke="black" stroke-linecap="round" stroke-linejoin="round"/>
<path d="M10 5.33334L6 9.33334" stroke="black" stroke-linecap="round" stroke-linejoin="round"/>
<path d="M10 9.33334H9.994M6.00598 5.33334H6" stroke="black" stroke-width="1.33333" stroke-linecap="round" stroke-linejoin="round"/>
</svg>
