<svg width="16" height="16" viewBox="0 0 16 16" fill="none" xmlns="http://www.w3.org/2000/svg">
<path d="M8 3.92578L12.0741 6.14801L8 8.3702L3.92593 6.14801L8 3.92578Z" stroke="black" stroke-linecap="round" stroke-linejoin="round"/>
<path d="M3.55556 10.2223V11.5552C3.55556 12.3203 3.692 12.5587 4.37451 12.9069L7.33747 14.4181C7.98767 14.7497 8.01233 14.7497 8.66253 14.4181L11.6255 12.9069C12.308 12.5587 12.4445 12.3203 12.4445 11.5552V10.2223" stroke="black" stroke-linecap="round" stroke-linejoin="round"/>
<path d="M9.7308 2.19287L8 3.75783L6.26917 2.19287C5.65895 1.64113 5.35385 1.36527 4.98062 1.33588C4.60739 1.30649 4.26535 1.53141 3.58128 1.98123L2.3423 2.79596C1.67792 3.23284 1.34573 3.45128 1.33367 3.77585C1.32161 4.10043 1.6366 4.34455 2.2666 4.8328L3.87763 6.08135L2.2666 7.32993C1.63661 7.81813 1.32161 8.06226 1.33367 8.38686C1.34573 8.71139 1.67792 8.92986 2.3423 9.36673L4.24424 10.6174C4.60908 10.8573 4.7915 10.9773 4.99055 10.9616C5.18961 10.9459 5.35233 10.7988 5.67778 10.5045L8 8.40486L9.7308 9.96979C10.3411 10.5215 10.6461 10.7975 11.0194 10.8268C11.3926 10.8562 11.7347 10.6313 12.4187 10.1815L13.6577 9.36673C14.3221 8.92986 14.6543 8.71139 14.6663 8.38686C14.6784 8.06226 14.3634 7.81813 13.7334 7.32993L12.1224 6.08135L13.7334 4.8328C14.3634 4.34455 14.6784 4.10043 14.6663 3.77585C14.6543 3.45128 14.3221 3.23284 13.6577 2.79596L12.4187 1.98123C11.7347 1.53141 11.3926 1.30649 11.0194 1.33588C10.6461 1.36527 10.3411 1.64113 9.7308 2.19287Z" stroke="black" stroke-linecap="round" stroke-linejoin="round"/>
</svg>
