<svg width="16" height="16" viewBox="0 0 16 16" fill="none" xmlns="http://www.w3.org/2000/svg">
<path d="M10 5.11573L10.9393 4.1247C11.4393 3.59718 11.6893 3.33342 12 3.33342C12.3107 3.33342 12.5607 3.59718 13.0607 4.1247L14 5.11573M12 3.39158V6.3083C12 7.79727 12 8.54174 11.7021 9.19827C11.4042 9.85474 10.8439 10.345 9.72333 11.3255L9.33333 11.6667" stroke="black" stroke-linecap="round" stroke-linejoin="round"/>
<path d="M2 4.33333C2 3.51659 2 3.10822 2.15895 2.79627C2.29877 2.52186 2.52186 2.29877 2.79627 2.15895C3.10822 2 3.51659 2 4.33333 2C5.15007 2 5.55845 2 5.8704 2.15895C6.14481 2.29877 6.3679 2.52186 6.50772 2.79627C6.66667 3.10822 6.66667 3.51659 6.66667 4.33333C6.66667 5.15007 6.66667 5.55845 6.50772 5.8704C6.3679 6.14481 6.14481 6.3679 5.8704 6.50772C5.55845 6.66667 5.15007 6.66667 4.33333 6.66667C3.51659 6.66667 3.10822 6.66667 2.79627 6.50772C2.52186 6.3679 2.29877 6.14481 2.15895 5.8704C2 5.55845 2 5.15007 2 4.33333Z" stroke="black"/>
<path d="M2 11.6667C2 10.8499 2 10.4415 2.15895 10.1296C2.29877 9.85519 2.52186 9.63206 2.79627 9.49226C3.10822 9.33333 3.51659 9.33333 4.33333 9.33333C5.15007 9.33333 5.55845 9.33333 5.8704 9.49226C6.14481 9.63206 6.3679 9.85519 6.50772 10.1296C6.66667 10.4415 6.66667 10.8499 6.66667 11.6667C6.66667 12.4834 6.66667 12.8918 6.50772 13.2037C6.3679 13.4781 6.14481 13.7013 5.8704 13.8411C5.55845 14 5.15007 14 4.33333 14C3.51659 14 3.10822 14 2.79627 13.8411C2.52186 13.7013 2.29877 13.4781 2.15895 13.2037C2 12.8918 2 12.4834 2 11.6667Z" stroke="black"/>
</svg>
